<?xml version="1.0" encoding="UTF-8"?>
<svg width="226px" height="121px" viewBox="0 0 226 121" version="1.1" xmlns="http://www.w3.org/2000/svg" xmlns:xlink="http://www.w3.org/1999/xlink">
    <!-- Generator: sketchtool 39.1 (31720) - http://www.bohemiancoding.com/sketch -->
    <title>4E159373-528C-4F6A-8013-F100D4DC8164</title>
    <desc>Created with sketchtool.</desc>
    <defs>
        <polygon id="path-1" points="11.9706797 0.612541667 0.40363476 0.612541667 0.40363476 28.8668568 11.9706797 28.8668568 11.9706797 0.612541667"></polygon>
        <polygon id="path-3" points="0 122 225.613654 122 225.613654 0.612541667 0 0.612541667"></polygon>
    </defs>
    <g id="EELV.fr" stroke="none" stroke-width="1" fill="none" fill-rule="evenodd">
        <g id="1.-Desktop-Home" transform="translate(-104.000000, -20.000000)">
            <g id="Content-card" transform="translate(49.000000, 0.000000)">
                <g id="Header">
                    <g id="logo-EELV" transform="translate(55.000000, 20.000000)">
                        <polygon id="Fill-1" fill="#FFD400" points="203.793201 74.6057286 196 80.9091295 206.167395 83.120542 210.334045 92 215.62999 83.7610849 226 82.9466717 219.102405 75.6435168 221.344838 66.2581446 211.789016 69.9860922 202.804367 65"></polygon>
                        <polygon id="Fill-2" fill="#FFD400" points="183.710669 111.285527 191.001206 108.068203 197.924051 112 197.083785 104.145187 203 98.8434078 195.191079 97.2074589 191.920434 90 187.937312 96.8423814 180 97.6885835 185.345992 103.554916"></polygon>
                        <polygon id="Fill-3" fill="#FFD400" points="169.760542 108.924942 164 108.069448 166.650972 113.011299 164.02322 117.95896 169.776022 117.087971 173.909216 121 174.814158 115.520964 180 112.989992 174.803838 110.475162 173.87761 105"></polygon>
                        <g id="Group-51">
                            <path d="M72.2667196,34.8107302 C73.9213173,36.4780635 77.0064067,35.8464594 78.5404291,34.514626 C83.5105352,30.2045948 84.4151665,22.459501 84.5578369,22.383251 L84.5540492,22.380074 C84.4795575,22.5236781 76.8107084,23.4482094 72.5501665,28.4718135 C71.2333061,30.0260427 70.6127531,33.1408552 72.2667196,34.8100948 L72.2667196,34.8107302 L72.2667196,34.8107302 Z" id="Fill-4" fill="#FFD400"></path>
                            <g id="Group-8" transform="translate(53.027933, 0.000000)">
                                <mask id="mask-2" fill="white">
                                    <use xlink:href="#path-1"></use>
                                </mask>
                                <g id="Clip-7"></g>
                                <path d="M6.22036592,28.8667885 C9.38625978,28.8864865 11.730852,24.6412677 11.925919,21.364424 C12.5691983,10.7599552 6.06506983,0.862705208 6.12819832,0.614892708 L6.12125419,0.612351042 C6.18627654,0.862705208 -0.253460894,10.6767156 0.458628492,21.2894448 C0.678946927,24.570101 3.05131564,28.8458198 6.21784078,28.8655177 L6.22036592,28.8667885 Z" id="Fill-6" fill="#FFD400" mask="url(#mask-2)"></path>
                            </g>
                            <path d="M52.4749274,30.1183688 C55.4691117,29.0883583 56.251905,24.1969208 55.3333855,20.955025 C52.3676089,10.4655667 42.8964413,3.02865 42.8718212,2.76876458 L42.8655084,2.76749375 C43.0113352,2.98988958 40.241257,14.6339 44.4872793,24.6823792 C45.8009832,27.7895667 49.4782179,31.1452021 52.4724022,30.1164625 L52.4749274,30.1183688 Z" id="Fill-9" fill="#FFD400"></path>
                            <path d="M45.7687877,35.1284385 C49.006648,31.9913865 47.6361285,25.742699 44.9380168,22.5287615 C36.2123966,12.112376 20.8437654,9.46586562 20.6872067,9.17611562 L20.6796313,9.17992812 C20.9649721,9.34577187 23.0961899,24.804824 33.2074804,33.8779385 C36.3329721,36.6826677 42.5271397,38.2610427 45.7662626,35.1265323 L45.7687877,35.1284385 Z" id="Fill-11" fill="#FFD400"></path>
                            <path d="M40.9200777,43.7152687 C42.1024743,39.1764875 36.9549771,34.2609042 32.3914184,32.7848312 C17.625033,27.9906125 1.24508324,33.7144458 0.917446369,33.5352583 L0.911764804,33.5428833 C1.28927318,33.5403417 12.8203235,46.3668625 28.0955246,49.2167062 C32.8169045,50.0980292 39.7313682,48.2534146 40.9181838,43.7152687 L40.9200777,43.7152687 Z" id="Fill-13" fill="#FFD400"></path>
                            <path d="M39.8967017,52.2245146 C39.1650425,47.8464938 32.6040983,45.6708271 27.9281709,46.2179208 C12.7905899,47.9831083 0.365008939,59.4434833 0.00202011173,59.4199729 L0.000126256982,59.4288688 C0.336601117,59.2776396 15.7468972,65.7163167 30.5713609,62.0772854 C35.1519642,60.9500563 40.6239419,56.6057125 39.8948078,52.2264208 L39.8967017,52.2245146 Z" id="Fill-15" fill="#FFD400"></path>
                            <path d="M41.6931492,62.7001844 C38.8902441,58.7847469 31.6348866,59.6927573 27.4740877,62.3786635 C14.0030989,71.064174 7.77231676,87.9147885 7.41564078,88.0583927 L7.41816592,88.0685594 C7.66373575,87.7648302 25.3485514,86.9203615 37.6194676,76.5611635 C41.4122274,73.3573927 44.4935291,66.6162573 41.6925179,62.7014552 L41.6931492,62.7001844 Z" id="Fill-17" fill="#FFD400"></path>
                            <path d="M47.4814006,69.9889219 C43.8994899,67.8482031 38.1813112,71.5819115 35.5999872,75.5399219 C27.2367246,88.3492865 27.4961827,105.051214 27.2455626,105.319359 L27.2512441,105.325078 C27.3573,104.970516 41.7341827,97.0220885 48.5672106,83.2983594 C50.6782274,79.0563177 51.0626799,72.1328177 47.4807693,69.9914635 L47.4814006,69.9889219 Z" id="Fill-19" fill="#FFD400"></path>
                            <path d="M56.3489966,73.5569135 C52.693857,73.1775698 49.5153374,77.8211948 48.9225609,81.5854031 C47.0028235,93.771424 53.4122592,105.94283 53.3125162,106.223049 L53.3181978,106.226226 C53.2708514,105.929486 61.7995106,95.3097677 62.1555553,82.9629865 C62.2653989,79.146674 60.0028737,73.9394344 56.3489966,73.5581844 L56.3489966,73.5569135 Z" id="Fill-21" fill="#FFD400"></path>
                            <path d="M63.4638933,71.8082469 C60.8882508,72.3267469 59.543614,75.5775385 59.8201168,77.8161115 C60.7026531,85.059226 67.3039994,90.6273823 67.2869547,90.8046635 L67.2926363,90.805299 C67.2061503,90.6477156 71.1409492,82.9617156 69.1542955,75.9390906 C68.5387927,73.7685073 66.0426922,71.2897469 63.4645246,71.8082469 L63.4638933,71.8082469 Z" id="Fill-23" fill="#FFD400"></path>
                            <path d="M66.2491855,30.253649 C69.1335263,31.545451 72.7627832,29.1257844 74.0897441,26.6076281 C78.3919508,18.457774 75.9185765,7.98610729 76.0618782,7.81454479 L76.0587218,7.81200313 C76.030314,8.03503438 66.7100235,13.219399 63.6438726,21.9207948 C62.6950514,24.6117844 63.3642134,28.9580344 66.2485542,30.2517427 L66.2491855,30.253649 Z" id="Fill-25" fill="#FFD400"></path>
                            <mask id="mask-4" fill="white">
                                <use xlink:href="#path-3"></use>
                            </mask>
                            <g id="Clip-28"></g>
                            <polygon id="Fill-27" fill="#79B41D" mask="url(#mask-4)" points="76.8873464 92.0636146 81.5866313 92.0636146 81.5866313 69.21975 76.8873464 69.21975"></polygon>
                            <path d="M90.4839609,79.2601594 C89.5843799,79.2601594 88.8811285,79.5168677 88.3761006,80.0302844 C87.8704413,80.5443365 87.5377542,81.2858677 87.375514,82.251701 L93.2433073,82.251701 C93.2433073,81.874899 93.1946983,81.5095344 93.098743,81.1543365 C93.0021564,80.7959615 92.8455978,80.4776177 92.629067,80.1999406 C92.411905,79.9197219 92.1265642,79.6928781 91.7730447,79.5194094 C91.4182626,79.346576 90.9883575,79.2601594 90.4839609,79.2601594 M90.3924246,75.9947531 C91.4334134,75.9947531 92.3866536,76.1567844 93.2508827,76.4833885 C94.1151117,76.8093573 94.8581341,77.2833781 95.4786872,77.9029094 C96.0998715,78.523076 96.5853296,79.2830344 96.9344302,80.1840552 C97.2835307,81.0844406 97.4577654,82.1049198 97.4577654,83.2448573 C97.4577654,83.6006906 97.4426145,83.8917115 97.4123128,84.1141073 C97.3820112,84.337774 97.3264581,84.5156906 97.2456536,84.6491281 C97.1648492,84.7806594 97.0562682,84.871524 96.9199106,84.9223573 C96.7841844,84.973826 96.6086872,84.9998781 96.3965754,84.9998781 L87.3306927,84.9998781 C87.4815698,86.3228156 87.8799106,87.281024 88.5276089,87.8751385 C89.1753073,88.4717948 90.0086034,88.767899 91.0300223,88.767899 C91.5760838,88.767899 92.0451285,88.7018156 92.4396816,88.569649 C92.8329721,88.4387531 93.1852291,88.2913365 93.4932961,88.127399 C93.8013631,87.9647323 94.0841788,87.8166802 94.3423743,87.685149 C94.6005698,87.5529823 94.8707598,87.4856281 95.1529441,87.4856281 C95.5272961,87.4856281 95.8101117,87.6235135 96.0013911,87.898649 L97.3668603,89.5926698 C96.8814022,90.1524719 96.358067,90.6080656 95.7968547,90.9575448 C95.2356425,91.3082948 94.6592793,91.584701 94.0696592,91.7823156 C93.477514,91.9799302 92.886,92.1165448 92.2951173,92.1940656 C91.7029721,92.270951 91.1392346,92.3103469 90.6045363,92.3103469 C89.5029441,92.3103469 88.470162,92.1286177 87.5049274,91.7689719 C86.5396927,91.4067844 85.6956648,90.8698573 84.9734749,90.1575552 C84.2512849,89.4446177 83.6793408,88.562024 83.2601676,87.5027844 C82.8397318,86.4448156 82.6314078,85.2140135 82.6314078,83.8097427 C82.6314078,82.751774 82.8100615,81.7497219 83.1692626,80.802951 C83.5284637,79.8555448 84.0435922,79.0282323 84.7152793,78.3159302 C85.3882291,77.6029927 86.2019553,77.0393781 87.1570894,76.621274 C88.1115922,76.2044406 89.1891955,75.9947531 90.3924246,75.9947531" id="Fill-29" fill="#79B41D" mask="url(#mask-4)"></path>
                            <path d="M109.059393,79.7026 C108.938818,79.8951313 108.809404,80.0330167 108.673678,80.11435 C108.537321,80.1963188 108.362455,80.23635 108.152237,80.23635 C107.929393,80.23635 107.708444,80.1886938 107.486231,80.091475 C107.26465,79.9948917 107.024131,79.8894125 106.76846,79.7775792 C106.510896,79.6670167 106.220505,79.5628083 105.897918,79.466225 C105.575332,79.3696417 105.207293,79.32135 104.794432,79.32135 C104.199762,79.32135 103.742712,79.4350896 103.424544,79.6638396 C103.106377,79.8925896 102.947924,80.2102979 102.947924,80.6169646 C102.947924,80.9137042 103.050823,81.1570688 103.258516,81.3508708 C103.464946,81.5446729 103.739555,81.7143292 104.082974,81.8611104 C104.426393,82.0091625 104.814002,82.1495896 105.248958,82.2823917 C105.68265,82.4145583 106.126444,82.561975 106.579706,82.7246417 C107.032969,82.8866729 107.477393,83.0779333 107.911717,83.2958813 C108.34541,83.5144646 108.732388,83.7851521 109.075807,84.1047667 C109.418594,84.4256521 109.693835,84.8145271 109.900265,85.2720271 C110.107326,85.7301625 110.210857,86.2810688 110.210857,86.9202979 C110.210857,87.7044021 110.07008,88.4256 109.786002,89.0877042 C109.503187,89.7498083 109.080857,90.3185063 108.520276,90.7963396 C107.959695,91.2741729 107.265913,91.6458917 106.442717,91.910225 C105.618259,92.1751938 104.671963,92.3079958 103.601304,92.3079958 C103.064712,92.3079958 102.529382,92.2558917 101.994684,92.1535896 C101.458092,92.0525583 100.941069,91.9159438 100.44046,91.742475 C99.9398514,91.5677354 99.4771196,91.3631313 99.0522648,91.1242146 C98.6286726,90.8852979 98.2644212,90.6285896 97.9614045,90.3528188 L99.0522648,88.6130479 C99.1835721,88.41035 99.3413933,88.2489542 99.5238346,88.1333083 C99.706276,88.0157563 99.9423765,87.9566625 100.234661,87.9566625 C100.508008,87.9566625 100.753578,88.0182979 100.97074,88.1396625 C101.188533,88.2629333 101.423371,88.3951 101.675885,88.5367979 C101.928399,88.6804021 102.225103,88.8132042 102.56284,88.9339333 C102.900578,89.0559333 103.32922,89.1169333 103.844349,89.1169333 C104.206706,89.1169333 104.516036,89.0794438 104.76855,89.0025583 C105.021695,88.9263083 105.223075,88.8227354 105.375215,88.6905688 C105.527354,88.5590375 105.637198,88.4116208 105.707902,88.2476833 C105.778606,88.0850167 105.814589,87.9172667 105.814589,87.7437979 C105.814589,87.4286313 105.707902,87.1693813 105.49579,86.9660479 C105.283678,86.7620792 105.005282,86.5860688 104.661863,86.4392875 C104.317812,86.2912354 103.926416,86.1546208 103.487041,86.0262667 C103.047036,85.8998188 102.600717,85.7549438 102.14493,85.5929125 C101.690404,85.428975 101.242823,85.2332667 100.803449,85.0045167 C100.364706,84.7757667 99.9720469,84.4853813 99.6292592,84.1346313 C99.2845777,83.7838813 99.0074436,83.3537042 98.7953318,82.8453708 C98.5832201,82.3370375 98.476533,81.7213188 98.476533,80.99885 C98.476533,80.3259438 98.6053151,79.6879854 98.8635106,79.0824333 C99.1217061,78.4775167 99.5080525,77.9450375 100.023181,77.4881729 C100.538309,77.0294021 101.184745,76.66785 101.96312,76.3977979 C102.741494,76.1283813 103.651807,75.9917667 104.692164,75.9917667 C105.258427,75.9917667 105.806382,76.0438708 106.337293,76.1461729 C106.868835,76.2472042 107.365656,76.3889021 107.830913,76.5719021 C108.295539,76.7561729 108.720393,76.9722146 109.103583,77.2219333 C109.488036,77.4703813 109.827036,77.7423396 110.119952,78.0384438 L109.059393,79.7026 Z" id="Fill-30" fill="#79B41D" mask="url(#mask-4)"></path>
                            <path d="M128.143452,92.063424 L122.977647,92.063424 L115.613709,72.9424656 L120.342664,72.9424656 C120.744161,72.9424656 121.08253,73.0384135 121.359033,73.2277677 C121.633011,73.4177573 121.817977,73.6547677 121.918351,73.9381635 L124.55586,82.5131115 C124.764184,83.2127052 124.961776,83.8951427 125.151161,84.5585177 C125.338653,85.2225281 125.502156,85.8859031 125.635988,86.550549 C125.769821,85.887174 125.934586,85.223799 126.130284,84.5585177 C126.32472,83.8951427 126.534307,83.2127052 126.7521,82.5131115 L129.499452,73.9381635 C129.598564,73.6547677 129.779742,73.4190281 130.049932,73.2277677 C130.317597,73.0371427 130.634502,72.9424656 131.002541,72.9424656 L135.508022,72.9424656 L128.143452,92.063424 Z" id="Fill-31" fill="#79B41D" mask="url(#mask-4)"></path>
                            <path d="M141.400435,79.2601594 C140.499592,79.2601594 139.798865,79.5168677 139.292575,80.0302844 C138.786916,80.5443365 138.452966,81.2858677 138.293251,82.251701 L144.160413,82.251701 C144.160413,81.874899 144.113066,81.5095344 144.017111,81.1543365 C143.918631,80.7959615 143.764597,80.4776177 143.544279,80.1999406 C143.328379,79.9197219 143.043039,79.6928781 142.69015,79.5194094 C142.336631,79.3478469 141.905463,79.2601594 141.400435,79.2601594 M141.310161,75.9947531 C142.350519,75.9947531 143.304391,76.1567844 144.167988,76.4833885 C145.031586,76.8093573 145.773977,77.2833781 146.396424,77.9029094 C147.017608,78.523076 147.503066,79.2830344 147.851536,80.1840552 C148.200005,81.0844406 148.374871,82.1049198 148.374871,83.2448573 C148.374871,83.6006906 148.360351,83.8917115 148.331312,84.1141073 C148.300379,84.337774 148.244826,84.5156906 148.163391,84.6491281 C148.081955,84.7812948 147.973374,84.871524 147.837647,84.9223573 C147.701921,84.973826 147.527055,84.9998781 147.314312,84.9998781 L138.247798,84.9998781 C138.401201,86.3228156 138.798279,87.281024 139.446608,87.8751385 C140.093675,88.4717948 140.927603,88.767899 141.949022,88.767899 C142.493821,88.767899 142.965391,88.7018156 143.358681,88.569649 C143.751972,88.4387531 144.104228,88.2913365 144.412296,88.127399 C144.719731,87.9647323 145.004441,87.8166802 145.262005,87.685149 C145.519569,87.5529823 145.788497,87.4856281 146.073206,87.4856281 C146.446296,87.4856281 146.72848,87.6235135 146.921022,87.898649 L148.286491,89.5926698 C147.803558,90.1524719 147.278329,90.6080656 146.716485,90.9575448 C146.155904,91.3082948 145.579541,91.584701 144.988659,91.7823156 C144.397145,91.9799302 143.806262,92.1165448 143.216011,92.1940656 C142.623865,92.270951 142.060128,92.3103469 141.524167,92.3103469 C140.422575,92.3103469 139.389161,92.1286177 138.422664,91.7689719 C137.458692,91.4067844 136.614664,90.8698573 135.891843,90.1575552 C135.169022,89.4446177 134.59834,88.562024 134.177904,87.5027844 C133.758731,86.4448156 133.549145,85.2140135 133.549145,83.8097427 C133.549145,82.751774 133.729061,81.7497219 134.086368,80.802951 C134.445569,79.8555448 134.961329,79.0282323 135.634279,78.3159302 C136.305966,77.6029927 137.119692,77.0393781 138.073564,76.621274 C139.026804,76.2031698 140.107564,75.9947531 141.310161,75.9947531" id="Fill-32" fill="#79B41D" mask="url(#mask-4)"></path>
                            <path d="M149.72923,92.063424 L149.72923,76.2377365 L152.517615,76.2377365 C152.751191,76.2377365 152.944995,76.2580698 153.102816,76.2987365 C153.260006,76.3400385 153.391313,76.4029448 153.496107,76.488726 C153.602794,76.5764135 153.682967,76.6895177 153.73852,76.8324865 C153.794073,76.9748198 153.843313,77.1482885 153.882453,77.3516219 L154.14128,78.8315073 C154.717643,77.9362052 155.363447,77.228351 156.08185,76.709851 C156.799621,76.1907156 157.581783,75.9314656 158.432755,75.9314656 C159.148632,75.9314656 159.724995,76.104299 160.15995,76.450601 L159.553917,79.9288719 C159.513515,80.1430073 159.432079,80.293601 159.310241,80.3793823 C159.189034,80.465799 159.027425,80.5090073 158.826045,80.5090073 C158.653704,80.5090073 158.451062,80.4861323 158.218118,80.4397469 C157.986436,80.3959031 157.69352,80.3717573 157.341263,80.3717573 C156.107732,80.3717573 155.134922,81.033226 154.428515,82.3542573 L154.428515,92.0602469 L149.72923,92.0602469 L149.72923,92.063424 Z" id="Fill-33" fill="#79B41D" mask="url(#mask-4)"></path>
                            <path d="M168.085796,92.3079323 C167.337092,92.3079323 166.678661,92.1986406 166.106717,91.978151 C165.534773,91.7602031 165.054365,91.4501198 164.666756,91.047901 C164.277254,90.6475885 163.981812,90.160224 163.779801,89.591526 C163.578421,89.0228281 163.476784,88.3855052 163.476784,87.6840052 L163.476784,79.5042865 L162.144142,79.5042865 C161.898572,79.5042865 161.693404,79.4248594 161.521695,79.2685469 C161.349354,79.1096927 161.263499,78.8777656 161.263499,78.573401 L161.263499,76.7268802 L163.765913,76.2388802 L164.690745,72.3793594 C164.811321,71.8888177 165.156002,71.646724 165.720371,71.646724 L168.176069,71.646724 L168.176069,76.270651 L171.997237,76.270651 L171.997237,79.5042865 L168.176069,79.5042865 L168.176069,87.3643906 C168.176069,87.7303906 168.264449,88.032849 168.44184,88.2717656 C168.620494,88.5106823 168.874902,88.6301406 169.208851,88.6301406 C169.381192,88.6301406 169.524494,88.6136198 169.641282,88.5767656 C169.757438,88.5411823 169.857812,88.5005156 169.943667,88.4560365 C170.030784,88.4102865 170.110958,88.3677135 170.189237,88.333401 C170.263728,88.2978177 170.350846,88.2787552 170.453745,88.2787552 C170.596416,88.2787552 170.708784,88.3130677 170.795902,88.3797865 C170.881125,88.4458698 170.968874,88.5507135 171.06041,88.691776 L172.485851,90.9360677 C171.879187,91.3935677 171.198661,91.7373281 170.439226,91.9667135 C169.677265,92.1929219 168.89384,92.3079323 168.085796,92.3079323" id="Fill-34" fill="#79B41D" mask="url(#mask-4)"></path>
                            <path d="M184.785239,79.7026 C184.663401,79.8951313 184.53525,80.0330167 184.398892,80.11435 C184.263166,80.1963188 184.088931,80.23635 183.87682,80.23635 C183.655239,80.23635 183.431132,80.1886938 183.212077,80.091475 C182.989233,79.9948917 182.748713,79.8894125 182.491149,79.7775792 C182.233585,79.6670167 181.945088,79.5628083 181.62187,79.466225 C181.298652,79.3696417 180.931244,79.32135 180.51649,79.32135 C179.923082,79.32135 179.465401,79.4350896 179.147864,79.6638396 C178.829065,79.8925896 178.671244,80.2102979 178.671244,80.6169646 C178.671244,80.9137042 178.773512,81.1570688 178.980574,81.3508708 C179.186373,81.5446729 179.46035,81.7143292 179.804401,81.8611104 C180.14782,82.0091625 180.536691,82.1495896 180.96849,82.2823917 C181.403445,82.4145583 181.847239,82.561975 182.300501,82.7246417 C182.754395,82.8866729 183.198188,83.0779333 183.632512,83.2958813 C184.064311,83.5144646 184.455708,83.7851521 184.796602,84.1047667 C185.139389,84.4256521 185.415892,84.8145271 185.621691,85.2720271 C185.829384,85.7301625 185.932283,86.2810688 185.932283,86.9202979 C185.932283,87.7044021 185.790244,88.4256 185.508691,89.0877042 C185.223982,89.7498083 184.802283,90.3185063 184.242965,90.7963396 C183.681121,91.2741729 182.989233,91.6458917 182.164775,91.910225 C181.341579,92.1751938 180.393389,92.3079958 179.322099,92.3079958 C178.786138,92.3079958 178.250177,92.2558917 177.71611,92.1535896 C177.178887,92.0525583 176.661233,91.9159438 176.161887,91.742475 C175.661278,91.5677354 175.199177,91.3631313 174.77306,91.1242146 C174.350099,90.8852979 173.985847,90.6285896 173.682199,90.3528188 L174.77306,88.6130479 C174.903104,88.41035 175.062188,88.2489542 175.245261,88.1333083 C175.428334,88.0157563 175.664434,87.9566625 175.95735,87.9566625 C176.229434,87.9566625 176.475004,88.0182979 176.692166,88.1396625 C176.908697,88.2629333 177.144797,88.3951 177.397311,88.5367979 C177.649194,88.6804021 177.946529,88.8132042 178.283004,88.9339333 C178.622004,89.0559333 179.050646,89.1169333 179.565775,89.1169333 C179.928132,89.1169333 180.237462,89.0794438 180.490607,89.0025583 C180.741859,88.9263083 180.942607,88.8227354 181.096009,88.6905688 C181.24878,88.5590375 181.358624,88.4116208 181.430591,88.2476833 C181.500032,88.0850167 181.535384,87.9172667 181.535384,87.7437979 C181.535384,87.4286313 181.430591,87.1693813 181.216585,86.9660479 C181.003842,86.7620792 180.726708,86.5860688 180.382026,86.4392875 C180.037976,86.2912354 179.645948,86.1546208 179.207836,86.0262667 C178.767199,85.8998188 178.322775,85.7549438 177.865093,85.5929125 C177.410568,85.428975 176.962987,85.2332667 176.52235,85.0045167 C176.082976,84.7757667 175.692842,84.4853813 175.349423,84.1346313 C175.004741,83.7838813 174.726345,83.3537042 174.513602,82.8453708 C174.303384,82.3370375 174.196697,81.7213188 174.196697,80.99885 C174.196697,80.3259438 174.325479,79.6879854 174.583043,79.0824333 C174.840607,78.4775167 175.228216,77.9450375 175.742713,77.4881729 C176.257842,77.0294021 176.907434,76.66785 177.685177,76.3977979 C178.461658,76.1283813 179.373864,75.9917667 180.413591,75.9917667 C180.977959,75.9917667 181.527177,76.0438708 182.05935,76.1461729 C182.58963,76.2472042 183.08582,76.3889021 183.551077,76.5719021 C184.01444,76.7561729 184.440557,76.9722146 184.824378,77.2219333 C185.209462,77.4703813 185.547199,77.7423396 185.840116,78.0384438 L184.785239,79.7026 Z" id="Fill-35" fill="#79B41D" mask="url(#mask-4)"></path>
                            <path d="M99.6548894,20.6106927 C98.568448,20.6106927 97.7193698,20.9214115 97.1095486,21.5415781 C96.4972022,22.1611094 96.0944425,23.0576823 95.8993754,24.2236719 L102.988705,24.2236719 C102.988705,23.7699844 102.929996,23.3264635 102.81447,22.8975573 C102.698314,22.4673802 102.508297,22.0829531 102.245683,21.7449115 C101.983068,21.4075052 101.637755,21.1323698 101.210375,20.9245885 C100.784889,20.714901 100.265342,20.6106927 99.6548894,20.6106927 M99.5450458,16.6647552 C100.803197,16.6647552 101.954029,16.8623698 102.998174,17.2544219 C104.04232,17.6477448 104.940007,18.218349 105.691867,18.968776 C106.443096,19.7192031 107.028928,20.6380156 107.449364,21.7252135 C107.871694,22.8130469 108.081912,24.0451198 108.081912,25.4214323 C108.081912,25.8535156 108.062342,26.2029948 108.02699,26.4736823 C107.990375,26.743099 107.922828,26.959776 107.824979,27.1192656 C107.72713,27.2793906 107.595822,27.3899531 107.431688,27.452224 C107.266292,27.5125885 107.056074,27.5430885 106.799772,27.5430885 L95.8444536,27.5430885 C96.0281575,29.1411615 96.5098279,30.299526 97.2919899,31.0194531 C98.0728894,31.7400156 99.0804201,32.0977552 100.313951,32.0977552 C100.974906,32.0977552 101.5418,32.0183281 102.017158,31.8582031 C102.494409,31.6987135 102.918001,31.5214323 103.291091,31.3238177 C103.662917,31.127474 104.005705,30.9489219 104.31756,30.7887969 C104.628152,30.6293073 104.954526,30.5498802 105.297314,30.5498802 C105.748683,30.5498802 106.090839,30.7144531 106.323152,31.0474115 L107.971437,33.094724 C107.385604,33.7714427 106.753688,34.3204427 106.075688,34.7455365 C105.39832,35.168724 104.701381,35.5016823 103.988029,35.740599 C103.273415,35.980151 102.5588,36.1466302 101.844185,36.2400365 C101.12894,36.3315365 100.449046,36.3772865 99.8019788,36.3772865 C98.4705989,36.3772865 97.221286,36.1587031 96.0553028,35.720901 C94.8886883,35.2869115 93.8697944,34.6368802 92.9954648,33.776526 C92.1217665,32.9161719 91.4317721,31.8467656 90.9261128,30.5676719 C90.4198223,29.2892135 90.1654145,27.8017031 90.1654145,26.1051406 C90.1654145,24.8273177 90.3819453,23.6155781 90.815638,22.473099 C91.2486994,21.3299844 91.8711464,20.3285677 92.6842413,19.4675781 C93.4960737,18.6084948 94.4802469,17.924151 95.6336045,17.4202656 C96.7875933,16.9163802 98.0905654,16.6647552 99.5450458,16.6647552" id="Fill-36" fill="#79B41D" mask="url(#mask-4)"></path>
                            <path d="M114.513506,20.2563844 L114.513506,30.2972385 C114.513506,31.0807073 114.689634,31.6868948 115.045679,32.1138948 C115.397936,32.5408948 115.918746,32.7550302 116.606215,32.7550302 C117.121975,32.7550302 117.604277,32.6482802 118.052489,32.4341448 C118.501964,32.2200094 118.940707,31.9207281 119.365561,31.5337594 L119.365561,20.2570198 L124.067372,20.2570198 L124.067372,36.080801 L121.155885,36.080801 C120.569422,36.080801 120.186863,35.8164677 120.003791,35.287801 L119.714662,34.3715302 C119.412908,34.6676344 119.099159,34.9345094 118.77531,35.1727906 C118.45083,35.4123427 118.104885,35.6150406 117.735584,35.783426 C117.367545,35.951176 116.969835,36.0827073 116.546874,36.1805615 C116.12202,36.2771448 115.657394,36.324801 115.151103,36.324801 C114.292556,36.324801 113.531226,36.1748427 112.86964,35.8742906 C112.206791,35.574374 111.648103,35.154999 111.193578,34.6155302 C110.739053,34.0766969 110.395003,33.4406448 110.16269,32.7080094 C109.930377,31.9741031 109.814221,31.1709365 109.814221,30.2966031 L109.814221,20.2563844 L114.513506,20.2563844 Z" id="Fill-37" fill="#79B41D" mask="url(#mask-4)"></path>
                            <path d="M126.51158,36.0803563 L126.51158,20.256575 L129.303122,20.256575 C129.535435,20.256575 129.729871,20.2762729 129.88643,20.3169396 C130.04362,20.3582417 130.175558,20.4205125 130.280983,20.5075646 C130.385776,20.5946167 130.468474,20.7096271 130.523396,20.8506896 C130.578949,20.9936583 130.625664,21.1658563 130.667329,21.369825 L130.924893,22.8497104 C131.501256,21.9544083 132.150217,21.2465542 132.866094,20.7286896 C133.583234,20.2095542 134.36729,19.9496688 135.216368,19.9496688 C135.932877,19.9496688 136.50924,20.1231375 136.944195,20.4688042 L136.338161,23.947075 C136.297128,24.1612104 136.217586,24.3111688 136.095748,24.3975854 C135.973279,24.4840021 135.81167,24.5278458 135.609659,24.5278458 C135.439212,24.5278458 135.235307,24.5049708 135.003625,24.4585854 C134.77005,24.4128354 134.477134,24.3905958 134.124877,24.3905958 C132.890715,24.3905958 131.919167,25.0520646 131.212759,26.3750021 L131.212759,36.07845 L126.51158,36.07845 L126.51158,36.0803563 Z" id="Fill-38" fill="#79B41D" mask="url(#mask-4)"></path>
                            <path d="M144.919975,32.815776 C146.002628,32.815776 146.797416,32.4319844 147.306863,31.664401 C147.816941,30.8961823 148.073243,29.7282865 148.073243,28.161349 C148.073243,26.5950469 147.818204,25.4303281 147.306863,24.6671927 C146.797416,23.9040573 146.000735,23.5221719 144.919975,23.5221719 C143.807651,23.5221719 142.995187,23.9040573 142.478796,24.6671927 C141.961774,25.4303281 141.705472,26.5950469 141.705472,28.161349 C141.705472,29.7282865 141.962405,30.8961823 142.478796,31.664401 C142.995187,32.4319844 143.807651,32.815776 144.919975,32.815776 M144.919975,20.013401 C146.112472,20.013401 147.198282,20.2002135 148.179299,20.577651 C149.159684,20.9544531 150.000556,21.4939219 150.703176,22.1947865 C151.405165,22.8962865 151.952489,23.7483802 152.34136,24.7517031 C152.729601,25.7537552 152.924668,26.8797135 152.924668,28.1314844 C152.924668,29.3927865 152.729601,30.528276 152.34136,31.5417656 C151.951226,32.553349 151.403902,33.4137031 150.703176,34.1202865 C150.000556,34.8275052 149.159684,35.3720573 148.179299,35.7526719 C147.199545,36.1345573 146.112472,36.3239115 144.919975,36.3239115 C143.71864,36.3239115 142.622098,36.1345573 141.637925,35.7526719 C140.651858,35.3707865 139.801517,34.8268698 139.09069,34.1202865 C138.378601,33.4137031 137.826858,32.553349 137.438617,31.5417656 C137.047852,30.528276 136.855941,29.3927865 136.855941,28.1314844 C136.855941,26.8784427 137.047852,25.7537552 137.438617,24.7517031 C137.826858,23.7483802 138.378601,22.8975573 139.09069,22.1947865 C139.801517,21.4939219 140.65312,20.9538177 141.637925,20.577651 C142.622098,20.2002135 143.71864,20.013401 144.919975,20.013401" id="Fill-39" fill="#79B41D" mask="url(#mask-4)"></path>
                            <path d="M162.118764,23.5681125 C161.774083,23.5681125 161.465384,23.602425 161.186356,23.6666021 C160.90796,23.7333208 160.650396,23.8267271 160.413032,23.9506333 C160.175669,24.0719979 159.955351,24.2264042 159.75334,24.4157583 C159.55196,24.6044771 159.349317,24.8198833 159.146044,25.0638833 L159.146044,31.7783313 C159.502088,32.1754667 159.884016,32.4518729 160.29877,32.6094563 C160.714155,32.7670396 161.149111,32.8464667 161.602373,32.8464667 C162.037328,32.8464667 162.436301,32.7606854 162.802446,32.5859458 C163.164172,32.4131125 163.481708,32.1354354 163.747479,31.7548208 C164.017669,31.3729354 164.226625,30.8779458 164.37687,30.2673104 C164.52901,29.6560396 164.605396,28.9145083 164.605396,28.0389042 C164.605396,27.2052375 164.544161,26.5024667 164.422954,25.9331333 C164.302379,25.3631646 164.132563,24.9031229 163.916032,24.5511021 C163.699502,24.1997167 163.438781,23.9487271 163.134502,23.7955917 C162.831485,23.6424563 162.491854,23.5681125 162.118764,23.5681125 L162.118764,23.5681125 Z M154.448021,41.1018 L154.448021,20.2575917 L157.358245,20.2575917 C157.651161,20.2575917 157.895468,20.3243104 158.093692,20.4558417 C158.290653,20.5867375 158.429535,20.7862583 158.509708,21.0505917 L158.858809,22.2108625 C159.163088,21.8766333 159.487569,21.5690917 159.836669,21.2952271 C160.186401,21.0213625 160.558859,20.7843521 160.959094,20.5867375 C161.358066,20.3872167 161.787971,20.232175 162.247546,20.1197062 C162.707122,20.0078729 163.210256,19.9525917 163.756317,19.9525917 C164.575094,19.9525917 165.332636,20.1362271 166.028943,20.5015917 C166.726513,20.8669562 167.326865,21.3968937 167.834418,22.0888625 C168.338815,22.7808312 168.736524,23.6272062 169.02439,24.6292583 C169.312887,25.6319458 169.456189,26.7687062 169.456189,28.040175 C169.456189,29.2303104 169.292055,30.3302167 168.964418,31.3367167 C168.634256,32.3432167 168.173418,33.2188208 167.583166,33.9609875 C166.993546,34.7031542 166.285876,35.283925 165.462049,35.7001229 C164.637591,36.1169562 163.726016,36.3266437 162.725429,36.3266437 C161.906021,36.3266437 161.219815,36.2097271 160.663653,35.9752583 C160.107491,35.741425 159.601831,35.4262583 159.146044,35.0291229 L159.146044,41.1037062 L154.446759,41.1037062 L154.448021,41.1018 Z" id="Fill-40" fill="#79B41D" mask="url(#mask-4)"></path>
                            <path d="M178.635766,23.2777271 C177.736185,23.2777271 177.034196,23.5350708 176.530431,24.0484875 C176.023509,24.5625396 175.691453,25.3021646 175.529844,26.2686333 L181.397006,26.2686333 C181.397006,25.8924667 181.34966,25.5264667 181.253073,25.1706333 C181.157118,24.8141646 181.001191,24.4964562 180.782135,24.2162375 C180.565604,23.937925 180.279001,23.7104458 179.925481,23.5376125 C179.570068,23.3654146 179.141425,23.2777271 178.635766,23.2777271 M178.54423,20.0129563 C179.586481,20.0129563 180.538459,20.1756229 181.402688,20.5015917 C182.266285,20.826925 183.009939,21.3003104 183.630492,21.9198417 C184.252939,22.5412792 184.737766,23.3012375 185.087498,24.2016229 C185.43723,25.1020083 185.610833,26.1224875 185.610833,27.2605188 C185.610833,27.6176229 185.595682,27.9073729 185.567274,28.1323104 C185.535079,28.3553417 185.479526,28.5326229 185.399353,28.665425 C185.317917,28.7969563 185.210598,28.8897271 185.072347,28.9411958 C184.937252,28.9913938 184.761755,29.0168104 184.550274,29.0168104 L175.482498,29.0168104 C175.635269,30.3397479 176.034241,31.2985917 176.681308,31.8933417 C177.328375,32.4887271 178.162302,32.7854667 179.183721,32.7854667 C179.729151,32.7854667 180.201353,32.7200188 180.592749,32.5872167 C180.987934,32.4544146 181.338297,32.3076333 181.648258,32.1436958 C181.954431,31.9810292 182.23914,31.8336125 182.496704,31.7014458 C182.754269,31.5699146 183.024459,31.5025604 183.307906,31.5025604 C183.682258,31.5025604 183.964442,31.6410813 184.156984,31.9162167 L185.521191,33.6102375 C185.037626,34.1687688 184.514922,34.6237271 183.952447,34.9757479 C183.390604,35.3264979 182.814241,35.6016333 182.223358,35.8005188 C181.631844,35.9987688 181.042855,36.1341125 180.450079,36.2109979 C179.859827,36.2878833 179.29609,36.3266438 178.758866,36.3266438 C177.657906,36.3266438 176.624492,36.1461854 175.659889,35.7852688 C174.69276,35.4237167 173.849364,34.8867896 173.127805,34.1757583 C172.404984,33.4634563 171.834302,32.5789563 171.415129,31.5216229 C170.995325,30.4630188 170.785738,29.2315813 170.785738,27.8279458 C170.785738,26.7693417 170.965023,25.7672896 171.324224,24.8211542 C171.683425,23.8737479 172.197291,23.0464354 172.871503,22.3341333 C173.543191,21.6211958 174.356917,21.0575813 175.31142,20.6401125 C176.263397,20.2213729 177.341632,20.0129563 178.54423,20.0129563" id="Fill-41" fill="#79B41D" mask="url(#mask-4)"></path>
                            <path d="M59.6169693,46.6298615 C58.2704385,46.6298615 57.2180866,47.014924 56.4618073,47.7837781 C55.7055279,48.5532677 55.2055503,49.660799 54.9643994,51.1082781 L63.7493603,51.1082781 C63.7493603,50.545299 63.6780251,49.9969344 63.5347235,49.4631844 C63.3901592,48.9307052 63.1553212,48.4541427 62.8302095,48.0360385 C62.5050978,47.617299 62.0764553,47.2779865 61.5480698,47.0193719 C61.0158966,46.7601219 60.3726173,46.6298615 59.6169693,46.6298615 M59.4806117,41.741601 C61.0392542,41.741601 62.4659581,41.9836948 63.7594609,42.4710594 C65.053595,42.9596948 66.1665503,43.6681844 67.0976955,44.5971635 C68.0275782,45.5267781 68.7541872,46.6654448 69.2768911,48.0125281 C69.7989637,49.3621531 70.0590531,50.8877885 70.0590531,52.5938823 C70.0590531,53.1276323 70.0382207,53.5622573 69.9921369,53.8971219 C69.9466844,54.2326219 69.8627235,54.4988615 69.742148,54.696476 C69.6203101,54.894726 69.4587011,55.031976 69.2541648,55.108226 C69.0502598,55.184476 68.7882765,55.2213302 68.4713715,55.2213302 L54.8949581,55.2213302 C55.1215894,57.201924 55.7194162,58.6379656 56.6878073,59.5288198 C57.6568296,60.4190385 58.9055112,60.8657365 60.433852,60.8657365 C61.2519972,60.8657365 61.9546173,60.7666115 62.5448687,60.5689969 C63.1351201,60.3707469 63.6603492,60.1496219 64.1224497,59.9062573 C64.583919,59.6622573 65.0075112,59.4411323 65.3938575,59.2435177 C65.7795726,59.0452677 66.1829637,58.9461427 66.6078184,58.9461427 C67.1677682,58.9461427 67.5919916,59.1507469 67.8798575,59.5631323 L69.9226955,62.100351 C69.1954553,62.9371948 68.4132933,63.6196323 67.5730531,64.1451219 C66.7321816,64.6712469 65.8698464,65.0829969 64.9841536,65.379101 C64.0997235,65.6771115 63.2140307,65.882351 62.3289693,65.996726 C61.4432765,66.1117365 60.5998799,66.1676531 59.7975168,66.1676531 C58.147338,66.1676531 56.6000587,65.8969656 55.1544162,65.356226 C53.709405,64.8161219 52.4455726,64.0123198 51.3635503,62.946726 C50.2815279,61.8798615 49.4261369,60.5531115 48.7986397,58.9683823 C48.1705112,57.3855594 47.8567626,55.5415802 47.8567626,53.4402573 C47.8567626,51.856799 48.1244274,50.3553094 48.6610196,48.9383302 C49.1988743,47.5219865 49.9721983,46.2797469 50.9784665,45.2141531 C51.9834721,44.147924 53.2024832,43.3028198 54.6323436,42.6769344 C56.0640978,42.0529552 57.6795559,41.741601 59.4806117,41.741601" id="Fill-42" fill="#004319" mask="url(#mask-4)"></path>
                            <path d="M87.147557,51.3421115 C86.9764788,51.5498927 86.8155011,51.7144656 86.6570486,51.8345594 C86.4998587,51.959101 86.2744899,52.0181948 85.9840989,52.0181948 C85.7063335,52.0181948 85.4538196,51.9521115 85.2303447,51.8174031 C85.0062385,51.6833302 84.7556184,51.5346427 84.4772218,51.3694344 C84.1981939,51.2048615 83.8718196,51.0568094 83.4968363,50.922101 C83.1212218,50.7880281 82.6559648,50.7200385 82.0985402,50.7200385 C81.4079145,50.7200385 80.8119816,50.8496635 80.3094788,51.1044656 C79.806976,51.3592677 79.3928531,51.7259031 79.0658475,52.2024656 C78.7394732,52.6777573 78.4970598,53.259799 78.3392385,53.9473198 C78.1820486,54.6373823 78.103138,55.413226 78.103138,56.279299 C78.103138,58.094049 78.4503447,59.489424 79.1472832,60.4635177 C79.8435905,61.4395177 80.801881,61.9268823 82.0253112,61.9268823 C82.6793223,61.9268823 83.196976,61.8436427 83.5782721,61.6803406 C83.9595682,61.5164031 84.2834173,61.3327677 84.5510821,61.131976 C84.8168531,60.9311844 85.0617916,60.7450073 85.2858978,60.5728094 C85.5093726,60.404424 85.791557,60.3186427 86.1311883,60.3186427 C86.5775067,60.3186427 86.9177693,60.4825802 87.1469257,60.8110906 L88.7825849,62.8418823 C88.2005402,63.5116115 87.5888251,64.056799 86.9474397,64.4768094 C86.3060542,64.8974552 85.6488866,65.2272365 84.9765682,65.4642469 C84.3055123,65.7025281 83.6294061,65.8658302 82.9520374,65.9573302 C82.2734061,66.0488302 81.6143447,66.0939448 80.9729592,66.0939448 C79.8221268,66.0939448 78.7224285,65.874726 77.6757581,65.436924 C76.6290877,64.9984865 75.708043,64.3611635 74.9151492,63.5268615 C74.1222553,62.6912885 73.4928642,61.6644552 73.0263447,60.445726 C72.5610877,59.2276323 72.3275123,57.837976 72.3275123,56.279299 C72.3275123,54.9131531 72.5314173,53.6353302 72.9367022,52.447101 C73.3419872,51.2595073 73.9417078,50.2294969 74.735233,49.3577052 C75.5274955,48.4871844 76.507881,47.8028406 77.6770207,47.3027677 C78.8448978,46.8020594 80.1977413,46.552976 81.736814,46.552976 C83.2133894,46.552976 84.508786,46.7906219 85.6230039,47.2652781 C86.7372218,47.7405698 87.7409648,48.4357156 88.6367581,49.3488094 L87.147557,51.3421115 Z" id="Fill-43" fill="#004319" mask="url(#mask-4)"></path>
                            <path d="M99.1727771,61.8898375 C100.468174,61.8898375 101.422045,61.4291604 102.032498,60.5090771 C102.64295,59.5889938 102.949123,58.1904417 102.949123,56.3140563 C102.949123,54.4370354 102.64295,53.0416604 102.032498,52.1292021 C101.420783,51.2135667 100.468174,50.7567021 99.1727771,50.7567021 C97.8413972,50.7567021 96.866062,51.2135667 96.2486654,52.1292021 C95.6319,53.0416604 95.3219391,54.4370354 95.3219391,56.3140563 C95.3219391,58.1904417 95.6319,59.5889938 96.2486654,60.5090771 C96.8666933,61.4291604 97.8401346,61.8898375 99.1727771,61.8898375 M99.1727771,46.5527854 C100.601375,46.5527854 101.903084,46.7789937 103.077274,47.2295042 C104.252096,47.6800146 105.258995,48.3249625 106.099866,49.1681604 C106.943894,50.0081812 107.596643,51.028025 108.062531,52.2289625 C108.529051,53.4292646 108.762626,54.7788896 108.762626,56.2784729 C108.762626,57.7894938 108.529682,59.1505563 108.062531,60.3635667 C107.596643,61.5772125 106.943894,62.6065875 106.099866,63.4529625 C105.258995,64.3006083 104.252096,64.951275 103.077274,65.408775 C101.901822,65.8656396 100.600112,66.0937542 99.1727771,66.0937542 C97.7315536,66.0937542 96.4229,65.8669104 95.2405034,65.408775 C94.0600006,64.951275 93.0430006,64.3006083 92.1895034,63.4523271 C91.3366374,62.6053167 90.6763134,61.5765771 90.2097939,60.3635667 C89.7439056,59.1499208 89.5109615,57.7888583 89.5109615,56.2772021 C89.5109615,54.7788896 89.7445369,53.4292646 90.2097939,52.2283271 C90.6763134,51.0273896 91.3360061,50.0075458 92.1895034,49.1662542 C93.0430006,48.3249625 94.0600006,47.6800146 95.2405034,47.2295042 C96.4216374,46.7789937 97.7302911,46.5527854 99.1727771,46.5527854" id="Fill-44" fill="#004319" mask="url(#mask-4)"></path>
                            <polygon id="Fill-45" fill="#004319" mask="url(#mask-4)" points="111.012084 65.8018438 116.643145 65.8018438 116.643145 38.4369896 111.012084 38.4369896"></polygon>
                            <path d="M128.55587,61.8898375 C129.85253,61.8898375 130.805139,61.4291604 131.416222,60.5090771 C132.026675,59.5889938 132.332848,58.1904417 132.332848,56.3140563 C132.332848,54.4370354 132.026675,53.0416604 131.416222,52.1292021 C130.804507,51.2135667 129.851267,50.7567021 128.55587,50.7567021 C127.223859,50.7567021 126.251049,51.2135667 125.633653,52.1292021 C125.014993,53.0416604 124.706295,54.4370354 124.706295,56.3140563 C124.706295,58.1904417 125.014993,59.5889938 125.633653,60.5090771 C126.251049,61.4291604 127.223859,61.8898375 128.55587,61.8898375 M128.55587,46.5527854 C129.985099,46.5527854 131.286809,46.7789937 132.460999,47.2295042 C133.635189,47.6800146 134.64272,48.3249625 135.485485,49.1681604 C136.326356,50.0081812 136.979736,51.028025 137.446256,52.2289625 C137.912775,53.4292646 138.144457,54.7788896 138.144457,56.2784729 C138.144457,57.7894938 137.912775,59.1505563 137.446256,60.3635667 C136.980999,61.5772125 136.327619,62.6065875 135.485485,63.4529625 C134.64272,64.3006083 133.635189,64.951275 132.460999,65.4094104 C131.285546,65.8669104 129.983837,66.0943896 128.55587,66.0943896 C127.115278,66.0943896 125.805362,65.8669104 124.622965,65.4094104 C123.443725,64.951275 122.426725,64.3006083 121.573228,63.4529625 C120.719099,62.6065875 120.060038,61.5772125 119.593518,60.3635667 C119.126368,59.1505563 118.894686,57.7894938 118.894686,56.2784729 C118.894686,54.7788896 119.128261,53.4292646 119.593518,52.2289625 C120.060038,51.028025 120.719099,50.0081812 121.573228,49.1681604 C122.426725,48.3249625 123.443725,47.6800146 124.622965,47.2295042 C125.805362,46.7789937 127.115278,46.5527854 128.55587,46.5527854" id="Fill-46" fill="#004319" mask="url(#mask-4)"></path>
                            <path d="M148.336552,55.3265552 C149.268328,55.3265552 149.943803,55.0927219 150.361083,54.623149 C150.778993,54.1542115 150.987317,53.548024 150.987317,52.803951 C150.987317,52.0370031 150.778993,51.4333573 150.361083,50.9955552 C149.943803,50.5552115 149.268328,50.3366281 148.336552,50.3366281 C147.402882,50.3366281 146.728669,50.5552115 146.31139,50.9955552 C145.894111,51.4333573 145.685155,52.0363677 145.685155,52.803951 C145.685155,53.1686802 145.736289,53.505451 145.83982,53.8098156 C145.941457,54.1148156 146.102435,54.379149 146.321491,54.6040865 C146.539284,54.8309302 146.813261,55.0069406 147.14658,55.1346594 C147.478636,55.2623781 147.876345,55.3265552 148.336552,55.3265552 M152.513764,66.4965448 C152.513764,66.1915448 152.419703,65.9475448 152.23158,65.7658156 C152.04472,65.5821802 151.78968,65.4360344 151.470882,65.3273781 C151.149558,65.2168156 150.774574,65.1373885 150.344038,65.0897323 C149.915396,65.0408052 149.450139,65.0033156 148.953949,64.9785344 C148.455865,64.955024 147.943261,64.9340552 147.409826,64.9149927 C146.87639,64.8978365 146.35053,64.8571698 145.82972,64.794899 C145.478725,65.0395344 145.192122,65.3108573 144.967384,65.6095031 C144.744541,65.9068781 144.630278,66.2455552 144.630278,66.6242635 C144.630278,66.891774 144.687725,67.1364094 144.802619,67.3556281 C144.918144,67.573576 145.121418,67.7629302 145.411178,67.921149 C145.702831,68.0800031 146.092334,68.2051802 146.583474,68.2973156 C147.07272,68.3881802 147.693904,68.4339302 148.444502,68.4339302 C149.255072,68.4339302 149.921077,68.3856385 150.441256,68.2884198 C150.962697,68.1899302 151.376189,68.0564927 151.685518,67.8868365 C151.992954,67.715274 152.208854,67.5119406 152.330692,67.2736594 C152.45253,67.036649 152.513764,66.7767635 152.513764,66.4965448 M148.336552,46.5171385 C149.135759,46.5171385 149.888882,46.5952948 150.597183,46.754149 C151.305485,46.9123677 151.964546,47.1373052 152.569317,47.4302323 L158.253407,47.4302323 L158.253407,49.4959719 C158.253407,49.8130448 158.163133,50.0627635 157.990161,50.2457635 C157.815926,50.4287635 157.515435,50.5691906 157.091211,50.665774 L155.713116,50.9758573 C155.881669,51.5254927 155.966261,52.091649 155.966261,52.6768677 C155.966261,53.627451 155.769301,54.4808156 155.37601,55.2350552 C154.98272,55.9924719 154.442971,56.6348781 153.759289,57.1648156 C153.076239,57.6947531 152.268194,58.1026906 151.335787,58.3886281 C150.402116,58.6764719 149.404055,58.8194406 148.339708,58.8194406 C147.743775,58.8194406 147.188245,58.781951 146.668697,58.7095135 C146.255206,58.9528781 146.047513,59.2324615 146.047513,59.548899 C146.047513,59.8666073 146.214803,60.0959927 146.546859,60.235149 C146.880178,60.375576 147.321446,60.4734302 147.864982,60.528076 C148.410412,60.5827219 149.034122,60.619576 149.736742,60.6360969 C150.438099,60.6564302 151.152714,60.6983677 151.879323,60.7650865 C152.606563,60.8324406 153.320546,60.9455448 154.022535,61.1031281 C154.725155,61.2626177 155.348865,61.5174198 155.894926,61.8713469 C156.439094,62.2233677 156.877837,62.6967531 157.210524,63.2870552 C157.544474,63.8792635 157.711133,64.6309615 157.711133,65.5459615 C157.711133,66.3980552 157.504072,67.2329927 157.092474,68.0488677 C156.681507,68.8660135 156.075474,69.5903885 155.275636,70.2245344 C154.477692,70.8574094 153.496675,71.3670135 152.334479,71.752076 C151.171653,72.1358677 149.839641,72.328399 148.338446,72.328399 C146.860608,72.328399 145.586675,72.1873365 144.515384,71.9077531 C143.444094,71.6256281 142.554613,71.2577219 141.84568,70.8002219 C141.137379,70.3452635 140.614044,69.8165969 140.274412,69.220576 C139.935412,68.6232844 139.766228,68.000576 139.766228,67.3556281 C139.766228,66.513701 140.021267,65.8052115 140.527558,65.2263469 C141.037004,64.6468469 141.733943,64.1937948 142.617111,63.8640135 C142.193518,63.5837948 141.853887,63.2254198 141.600111,62.7869823 C141.346965,62.347274 141.220708,61.7931906 141.220708,61.122826 C141.220708,60.8426073 141.266792,60.5471385 141.36401,60.235149 C141.461228,59.9250656 141.613368,59.6238781 141.817273,59.3322219 C142.024334,59.0386594 142.283792,58.7571698 142.598803,58.4902948 C142.913183,58.2227844 143.288798,57.9845031 143.724384,57.775451 C142.74463,57.2531385 141.972569,56.5579927 141.408831,55.6925552 C140.846356,54.8271177 140.564172,53.822524 140.564172,52.6762323 C140.564172,51.725649 140.764289,50.8691073 141.164524,50.1078781 C141.562865,49.346649 142.111451,48.7004302 142.80839,48.1704927 C143.504066,47.6399198 144.324736,47.2332531 145.268507,46.9460448 C146.210384,46.6594719 147.234328,46.5171385 148.336552,46.5171385" id="Fill-47" fill="#004319" mask="url(#mask-4)"></path>
                            <path d="M161.017425,65.8018438 L166.648486,65.8018438 L166.648486,46.8454583 L161.017425,46.8454583 L161.017425,65.8018438 Z M167.303128,41.6547396 C167.303128,42.1058854 167.211592,42.5297083 167.029782,42.9249375 C166.847972,43.3208021 166.599877,43.6677396 166.285497,43.9663854 C165.970486,44.2669375 165.604341,44.5026771 165.187061,44.6786875 C164.770413,44.8566042 164.324095,44.9430208 163.851263,44.9430208 C163.390425,44.9430208 162.961151,44.8566042 162.56281,44.6786875 C162.162575,44.5026771 161.807793,44.2656667 161.499095,43.9663854 C161.191028,43.6677396 160.948615,43.3214375 160.773749,42.9249375 C160.598251,42.5297083 160.510503,42.10525 160.510503,41.6547396 C160.510503,41.1915208 160.598883,40.7575313 160.773749,40.3559479 C160.948615,39.9543646 161.191028,39.6017083 161.499095,39.2973438 C161.807793,38.9917083 162.162575,38.7540625 162.56281,38.5837708 C162.961151,38.4128438 163.391056,38.3276979 163.851263,38.3276979 C164.324095,38.3276979 164.769151,38.4128438 165.187061,38.5837708 C165.605603,38.7534271 165.970486,38.9910729 166.285497,39.2973438 C166.599877,39.6017083 166.847972,39.9543646 167.029782,40.3559479 C167.211592,40.7575313 167.303128,41.1915208 167.303128,41.6547396 L167.303128,41.6547396 Z" id="Fill-48" fill="#004319" mask="url(#mask-4)"></path>
                            <path d="M177.648184,50.4640927 C176.573106,50.4640927 175.729078,50.7722698 175.124307,51.3879885 C174.519536,52.0037073 174.119301,52.8894781 173.925497,54.0478427 L180.953592,54.0478427 C180.953592,53.5973323 180.896776,53.1563531 180.781251,52.730624 C180.665726,52.303624 180.478865,51.9249156 180.218145,51.5887802 C179.958055,51.254551 179.615899,50.9832281 179.192938,50.7748115 C178.770608,50.568301 178.254849,50.4640927 177.648184,50.4640927 M177.541497,46.5531031 C178.787653,46.5531031 179.930279,46.7475406 180.963061,47.1376865 C181.996474,47.5278323 182.889111,48.0939885 183.632134,48.837426 C184.376418,49.5821344 184.957201,50.4933219 185.376374,51.5709885 C185.792391,52.6486552 186.001346,53.8711969 186.001346,55.2367073 C186.001346,55.6649781 185.98367,56.0106448 185.947055,56.2787906 C185.912335,56.5469365 185.845418,56.759801 185.748201,56.9186552 C185.650351,57.0775094 185.520307,57.1880719 185.357435,57.247801 C185.193301,57.3075302 184.983715,57.3386656 184.731201,57.3386656 L173.869944,57.3386656 C174.053016,58.9233948 174.530268,60.0715927 175.304854,60.7845302 C176.078809,61.4974677 177.078765,61.8552073 178.29967,61.8552073 C178.956206,61.8552073 179.519312,61.7757802 179.98962,61.616926 C180.463083,61.4606135 180.882256,61.281426 181.252821,61.0869885 C181.622754,60.892551 181.961754,60.7159052 182.267296,60.557051 C182.57915,60.3988323 182.901106,60.3200406 183.240106,60.3200406 C183.687687,60.3200406 184.027949,60.4839781 184.257737,60.8124885 L185.892134,62.8432802 C185.310089,63.5130094 184.684485,64.0581969 184.012167,64.4788427 C183.339217,64.8988531 182.649223,65.2267281 181.942184,65.464374 C181.234513,65.7026552 180.524949,65.8659573 179.817279,65.9580927 C179.107083,66.0495927 178.433502,66.0947073 177.792117,66.0947073 C176.471469,66.0947073 175.234782,65.879301 174.077636,65.4459469 C172.921122,65.0132281 171.909804,64.3708219 171.043681,63.5174573 C170.178821,62.6647281 169.493877,61.6042177 168.992636,60.3352906 C168.490134,59.0689052 168.238882,57.5947385 168.238882,55.9121552 C168.238882,54.644499 168.452256,53.442926 168.882793,52.311249 C169.312698,51.1776656 169.929463,50.1845094 170.736877,49.3317802 C171.541134,48.4777802 172.515837,47.8023323 173.660988,47.3022594 C174.808664,46.8021865 176.099642,46.5531031 177.541497,46.5531031" id="Fill-49" fill="#004319" mask="url(#mask-4)"></path>
                            <path d="M64.293086,33.4381667 C63.3657285,32.0847292 61.173276,32.1298438 59.9548961,32.8497708 C56.0118905,35.1766667 54.4254715,40.3737396 54.3194156,40.4074167 L54.3206782,40.4112292 C54.388857,40.321 59.7610916,40.6545938 63.3089128,37.7488333 C64.406086,36.8490833 65.219181,34.7909688 64.293086,33.4388021 L64.293086,33.4381667 Z" id="Fill-50" fill="#004319" mask="url(#mask-4)"></path>
                        </g>
                    </g>
                </g>
            </g>
        </g>
    </g>
</svg>